<?xml version="1.0" standalone="no"?>
<!DOCTYPE svg PUBLIC "-//W3C//DTD SVG 1.1//EN" "http://www.w3.org/Graphics/SVG/1.1/DTD/svg11.dtd">
<svg xmlns="http://www.w3.org/2000/svg">
<metadata>Generated by Fontastic.me</metadata>
<defs>
<font id="epic-outlines" horiz-adv-x="512">
<font-face font-family="epic-outlines" units-per-em="512" ascent="480" descent="-32"/>
<missing-glyph horiz-adv-x="512" />

<glyph unicode="&#97;" d="M273 68l0-34 85 0 0-34-204 0 0 34 85 0 0 34-239 0 0 342 96 0 4-35-66 0 0-273 444 0 0 273-19 0 15 35 38 0 0-342z m162 342l-15-35 0 0-79-170-187 51-16 119 0 0-5 35 0 0-14 102 325-85-8-17z m-247-120l136-34 25 58-170 41z m-22 171l9-69 188-47 22 52z"/>
<glyph unicode="&#98;" d="M273 0l0 34 239 0 0-34z m18 177l27 27-62 62-232-232-24 24 232 232-61 62-28-28-23 24 164 164 24-23-28-28 147-147 28 27 23-23-164-164z m112 113l-147 147-61-61 147-147z"/>
<glyph unicode="&#99;" d="M307 0l0 171-102 0 0-171-205 0 0 410 34 0 0 102 137 0 0-102 34 0 0-103 102 0 0 103 34 0 0 102 137 0 0-102 34 0 0-410z m-170 478l-69 0 0-68 69 0z m34-103l-137 0 0-238 137 0z m0-273l-137 0 0-68 137 0z m136 171l-102 0 0-68 102 0z m137 205l-69 0 0-68 69 0z m34-103l-137 0 0-238 137 0z m0-273l-137 0 0-68 137 0z"/>
<glyph unicode="&#100;" d="M512 222l0-34-69 0c-3-36-14-68-31-96l66-66-26-26-62 62c-34-38-81-62-134-62-53 0-100 24-134 62l-62-62-26 26 66 66c-17 28-28 60-31 96l-69 0 0 34 69 0c3 44 20 85 45 116l-63 63 26 26 62-62c12 10 25 19 40 26-5 11-8 23-8 36 0 47 38 85 85 85 47 0 85-38 85-85 0-13-3-25-8-36 15-7 28-16 40-26l62 62 25-26-62-63c25-32 41-72 45-116z m-410-17c0-88 60-160 137-170l0 340c-77-10-137-82-137-170z m154 273c-28 0-51-23-51-51 0-10 2-15 7-23 0-1 1-3 1-2 13 6 25 8 43 8 18 0 36-3 44-8 0 0 1 2 1 2 5 8 6 18 6 23 0 28-23 51-51 51z m17-103l0-340c77 10 137 82 137 170 0 88-60 160-137 170z"/>
<glyph unicode="&#101;" d="M342 34l-342 0c0 12 0 23 0 34l34 0 0 69c0-1 2 0 3 0 27 1 49 23 49 51 0 27-22 49-48 51-1 0-4 1-4 0l0 205-34 0c0 11 0 22 0 34l342 0c94 0 170-76 170-171l0-102c0-94-76-171-170-171z m136 273c0 76-61 137-136 137l-273 0 0-178c30-13 51-43 51-78 0-35-21-65-51-78l0-42 273 0c75 0 136 61 136 137z m-102-34c-28 0-51 23-51 51 0 29 23 52 51 52 28 0 51-23 51-52 0-28-23-51-51-51z m0 68c-10 0-17-7-17-17 0-9 7-17 17-17 9 0 17 8 17 17 0 10-8 17-17 17z m0-170c0-29-23-51-51-51-29 0-52 22-52 51 0 28 23 51 52 51 28 0 51-23 51-51z m-68 0c0-10 7-17 17-17 9 0 17 7 17 17 0 9-8 17-17 17-10 0-17-8-17-17z m-120 102c-38 0-68 31-68 68 0 38 30 69 68 69 38 0 68-31 68-69 0-37-30-68-68-68z m0 103c-19 0-34-16-34-35 0-18 15-34 34-34 19 0 34 16 34 34 0 19-15 35-34 35z m-8-222c14 0 25-12 25-26 0-14-11-26-25-26-15 0-26 12-26 26 0 14 11 26 26 26z m-180-86c0 0 0-1 0 0 0 0 0-1 0 0z m0 0c0 1 0 1 0 0z m0 376l0 0c0 0 0 0 0 0 0 0 0 0 0 0z"/>
<glyph unicode="&#102;" d="M256 233c-48-33-103-93-103-146 0-66 0-83 0-86l-34 0c0 0 0 18 0 86 0 86 69 141 120 180 63 48 119 105 119 160 0 85 0 86 0 86l34 0c0-6 0-25 0-86 0-84-84-158-136-194z m-68 246l136 0 0-35-136 0z m2-69l131 0c0 0-2-7-6-17-4-7-12-17-12-17l-94 0c0 0-7 9-12 17-6 8-7 17-7 17z m3-119c0 0-35 31-58 73-8 14-16 34-16 63 0 53 0 48 0 86l34 0c0-27 0-50 0-86 0-23 8-35 15-49 20-36 54-65 54-65z m131-256l-136 0 0 34 136 0z m-3 68l-131 0c0 0 1 9 6 17 6 9 13 17 13 17l94 0c0 0 8-9 12-17 4-9 6-17 6-17z m-31 102l29 24c0 0 35-33 59-76 17-33 14-85 14-152l-34 0c0 0 0 0 0 0 0 54 1 110-14 137-22 39-54 67-54 67z m68-204l0 0c0-3 0 0 0 0z"/>
<glyph unicode="&#103;" d="M512 154c0-85-69-154-154-154-1 0 2 0 0 0-90 0-358 0-358 0l0 512 256 0 119-119c0 0 0-37 0-87 77-8 137-73 137-152z m-256 315l0-76 76 0z m-34-111l0 120-188 0 0-444c0 0 137 0 228 0-35 28-57 71-57 120 0 79 60 144 136 152 0 31 0 52 0 52z m136-85c-66 0-119-53-119-119 0-66 53-120 119-120 66 0 120 54 120 120 0 66-54 119-120 119z m-17-136l0 102 34 0 0-68 52 0 0-34z"/>
<glyph unicode="&#104;" d="M478 171l0 170 34 0 0-170z m-68 205l34 0 0-239-34 0z m-68-137l-171 0 0-137-34 0 0 308 34 0 0-137 171 0 0 137 34 0 0-308-34 0z m-273 137l34 0 0-239-34 0z m-69-35l34 0 0-170-34 0z"/>
<glyph unicode="&#105;" d="M485 260c6-11 10-24 10-38 0-23-9-45-26-61l-119-118-9-9-8 9-34 33c-17-16-28-28-28-28l-15-14-15 14-201 196c-26 26-40 60-40 96 0 76 64 138 143 138 45 0 86-18 113-51 27 33 68 51 113 51 79 0 143-62 143-138 0-29-10-57-27-80z m-144-182l100 98c12 11 20 28 20 45 0 33-28 52-62 52l0 0c-28 0-48-17-58-39-9 22-31 39-57 39-34 0-62-18-62-51 0-16 7-32 18-42z m21 366l0 0c-51 0-89-30-106-69-17 39-58 69-106 69-64 0-116-48-116-108 0-28 13-54 32-74l190-183c0 0 8 8 21 20l-65 64c-16 16-24 37-24 59 0 47 38 85 85 85 28 0 52-11 68-31 16 20 41 31 68 31 21 0 40-8 55-20 9 15 14 31 14 49 0 60-52 108-116 108z"/>
<glyph unicode="&#106;" d="M444 171l0-69 68 0 0-102-171 0 0 102 69 0 0 69c0 37-31 68-69 68l-170 0c-38 0-69-31-69-68l0-69c-23 0 69 0 69 0l0-102-171 0 0 102 68 0 0 69c0 44 29 81 68 96l-85 85 0 12 110 110c11 22 34 38 61 38l68 0c27 0 50-16 61-38l110-110 0-12-85-85c39-15 68-52 68-96z m-69-103l0-34 103 0 0 34z m-341 0l0-34 103 0 0 34z m290 376c0 19-15 34-34 34l-17 0 0-34-34 0 0 34-17 0c-19 0-34-15-34-34l0-69c0-18 15-34 34-34l68 0c19 0 34 16 34 34z m96-85l-62 62 0-46c0-37-30-68-68-68l-68 0c-38 0-68 31-68 68l0 46-62-62 86-86 156 0z m-113-359l-102 0 0 34 102 0z"/>
<glyph unicode="&#107;" d="M444 119l0-119-120 119-324 0 0 393 512 0 0-393z m34 359l-444 0 0-324 307 0 69-69 0 69 68 0z m-103-188c-18 0-34 15-34 34 0 19 16 34 34 34 19 0 35-15 35-34 0-19-16-34-35-34z m-119 0c-19 0-34 15-34 34 0 19 15 34 34 34 19 0 34-15 34-34 0-19-15-34-34-34z m-119 0c-19 0-35 15-35 34 0 19 16 34 35 34 18 0 34-15 34-34 0-19-16-34-34-34z"/>
<glyph unicode="&#108;" d="M273 137l0-69 68 0 0-34-170 0 0 34 68 0 0 69-239 0 0 341 512 0 0-341z m205 307l-444 0 0-273 444 0z"/>
<glyph unicode="&#109;" d="M0 0l0 512 410 0 0-102 102 0 0-410z m478 375l-68 0 0-273-35 0 0 376-341 0 0-444 444 0z m-154-136l-239 0 0 188 239 0z m-34 154l-171 0 0-120 171 0z m34-239l-239 0 0 34 239 0z m-102-69l-137 0 0 34 137 0z"/>
<glyph unicode="&#110;" d="M273 188c1 26 0-188 0-188l-34 0 0 171c0 70-58 119-120 119l-85 0c0-69 74-120 120-119 0 0 27 0 51 0l0-34-50 0c-78 0-146 61-155 136 0 0 0 43 0 51l119 0c78 0 145-60 154-136z m-34 187c0 26 0-68 0-68l34-34 1 85c0 70 57 120 119 120l85 0c0-69-74-120-119-120 0 0-28 0-51 0l0-34 49 0c78 0 146 61 155 137 0 0 0 43 0 51l-118 0c-79 0-146-60-155-137z"/>
<glyph unicode="&#111;" d="M512 358l-188-187 0-171-324 324 171 0 187 188 154 0z m-34 120l-103 0-187-188-103 0 205-205 0 103 188 187z m-382-297l-45-130 130 45 25-25-206-71 71 206z m0 0z"/>
<glyph unicode="&#112;" d="M495 0l-478 0 52 410 70 0c8 57 57 102 117 102 60 0 110-45 118-102l70 0z m-239 478c-41 0-75-30-83-68l167 0c-8 38-42 68-84 68z m-160-103l-44-341 409 0-43 341z m237-85c-14 0-25 12-25 26 0 14 11 25 25 25 14 0 26-11 26-25 0-14-12-26-26-26z m-153 0c-15 0-26 12-26 26 0 14 11 25 26 25 14 0 25-11 25-25 0-14-11-26-25-26z"/>
<glyph unicode="&#113;" d="M418 119l0-119-119 0 0 34 60 0-75 75c-19-15-44-24-71-24-66 0-119 54-119 120 0 47 28 89 69 108 0 0 0 0 0 1 1 0 8 3 15 5 12 4 27 5 35 5 41 0 77-20 98-51 0-1-6-6-12-9-9-5-17-8-17-8 0 0-19 34-69 34-7 0-20-2-29-5-8-3-17-9-17-9 0 0 0 0 0-1 0 0 0 1 0 1-24-15-39-42-39-71 0-47 38-86 85-86 29 0 54 14 69 36 1-1 13-3 23 0 10 2 18 4 19 4-4-9-9-17-15-25l75-75 0 60 34 0z m-107 154c0 0 1 0 1 0 0 0 0 0-1 0z m56 34c0 47-38 85-85 85-53 0-69-34-69-34 0 0-15 1-27-2-9-2-14-4-15-4 6 13 13 25 23 35l-41 41-36-35-23 22 36 36-36 36 25 25 36-36 36 36 22-23-35-36 43-43c18 10 39 17 61 17 66 0 119-54 119-120 0-48-28-89-68-108 0 0 0 0 0 0-1-1-10-4-18-7-9-2-17-3-17-3 0 0 0 0-1 0-5-1-10-1-15-1-41 0-77 21-99 53 1 0 8 5 16 8 8 3 16 5 16 5 0 0 23-32 67-32 5 0 10 0 15 1 0 2 0 0 0 0 0 0 6 0 18 6 8 3 14 7 14 7 0 0-1 2 0 0 23 15 38 41 38 71z m-205 6c0 0 1 7 1 1 0 0-1-1-1-1z m9 38c0 0 0 1 0 1-3-7 0-1 0-1z m162-152c0 0 0 0 0 0 0 0-1 1 0 0z m-150 42c0 0 0-1 0-1 0 0 1 2 0 1z m99-86c0 0 0 0 0 0 0 0 3 4 0 0z m42 4c0 0 0 0 0 0 1 4 0 0 0 0z"/>
<glyph unicode="&#114;" d="M171 341l341 0 0-34-341 0z m-171 171l137 0 0-205-137 0z m34-171l68 0 0 137-68 0z m478-68c-2 0 0-5 0-7-3-71-50-131-114-154 3-7 6-16 12-27 17-34 51-51 51-51l0-34-239 0 0 34c0 0 29 17 51 51 7 11 11 19 13 27-57 19-100 67-112 127l-140 0 0 34c0 0 355 0 478 0z m-190-135c-2-13-7-33-15-53-11-26-34-51-34-51l137 0c0 0-22 23-35 51-8 19-12 40-14 53 55 8 99 48 113 101l-265 0c14-53 58-93 113-101z"/>
<glyph unicode="&#115;" d="M478 68l0-68-102 0 0 68-239 0 0-68-103 0 0 68-34 0 0 444 512 0 0-444z m-68-34l34 0 0 34-34 0z m-341 0l34 0 0 34-34 0z m409 444l-444 0 0-376 444 0z m-34-205l-375 0 0 171 375 0z m-34 137l-307 0 0-103 307 0z m-307-188c19 0 34-15 34-34 0-19-15-34-34-34-19 0-34 15-34 34 0 19 15 34 34 34z m239-17l-171 0 0 34 171 0z m0-68l-171 0 0 34 171 0z m68 85c19 0 34-15 34-34 0-19-15-34-34-34-19 0-34 15-34 34 0 19 15 34 34 34z"/>
<glyph unicode="&#116;" d="M459 222l-26 18c24 35 43 81 43 128 0 47-19 92-43 127l29 17c25-38 50-93 50-144 0-52-27-108-53-146z m-55 39l-28 19c21 25 29 56 29 89 0 33-9 63-30 88l28 18c23-28 38-70 38-107 0-36-14-79-37-107z m-131-72l0-189-34 0 0 189c-39 8-68 43-68 84l0 239c16 0 26 0 34 0l0-239c0-28 23-51 51-51 28 0 51 23 51 51l0 239c10 0 19 0 34 0l0-239c0-41-29-76-68-84z m-137 91l-28-19c-23 28-37 71-37 107 0 37 14 79 38 107l28-18c-21-25-30-55-30-88 0-33 8-64 29-89z m-58-40l-26-18c-25 38-52 94-52 146 0 51 24 106 50 144l28-17c-23-35-42-80-42-127 0-47 19-93 42-128z"/>
</font>
</defs>
</svg>
